  0
SECTION
  2
HEADER
  9
$ANGBASE
  50
0.0
  9
$ANGDIR
  70
1
  9
$MEASUREMENT
  70
1
  0
ENDSEC
  0
SECTION
  2
TABLES
  0
TABLE
  2
LTYPE
  70
4
  0
LTYPE
  5
40F
  2
CONTINUOUS
  70
0
  3
Solid line
  72
65
  73
0
  40
0.0
  0
LTYPE
  5
410
  2
DASHDOT
 70
0
  3
Dash Dot ____ _ ____ _
 72
65
 73
4
 40
2.0
 49
1.25
 49
-0.25
 49
0.25
 49
-0.25
  0
LTYPE
  5
411
  2
DASHED
 70
0
  3
Dashed __ __ __ __ __
 72
65
 73
2
 40
0.75
 49
0.5
 49
-0.25
  0
LTYPE
  5
43B
  2
DOTTED
 70
0
  3
Dotted .  .  .  .
 72
65
 73
2
 40
0.2
 49
0.0
 49
-0.2
  0
ENDTAB
  0
TABLE
  2
STYLE
  70
4
  0
STYLE
  2
KICAD
  70
0
  40
0
  41
1
  42
1
  50
0
  71
0
  3
isocp.shx
  0
STYLE
  2
KICADB
  70
0
  40
0
  41
1
  42
1
  50
0
  71
0
  3
isocp.shx
  0
STYLE
  2
KICADI
  70
0
  40
0
  41
1
  42
1
  50
15
  71
0
  3
isocp.shx
  0
STYLE
  2
KICADBI
  70
0
  40
0
  41
1
  42
1
  50
15
  71
0
  3
isocp.shx
  0
ENDTAB
  0
TABLE
  2
LAYER
  70
1
  0
LAYER
  2
BLACK
  70
0
  62
7
  6
CONTINUOUS
  0
ENDTAB
  0
ENDSEC
  0
SECTION
  2
ENTITIES
0
LINE
8
BLACK
6
CONTINUOUS
10
386.3
20
-117.95
11
386.3
21
-62.49
0
LINE
8
BLACK
6
CONTINUOUS
10
300.837
20
-94.7
11
287.837
21
-94.7
0
ARC
8
BLACK
10
164.012
20
-108.2
40
0.5
50
-180
51
-90
0
ARC
8
BLACK
10
381.8
20
-108.2
40
0.5
50
-90
51
-0
0
ARC
8
BLACK
10
177.012
20
-95.2
40
0.5
50
-0
51
90
0
CIRCLE
8
BLACK
10
377.8
20
-62.7
40
1.15
0
LINE
8
BLACK
6
CONTINUOUS
10
287.837
20
-108.7
11
300.837
21
-108.7
0
LINE
8
BLACK
6
CONTINUOUS
10
53.1875
20
-94.7
11
40.1875
21
-94.7
0
LINE
8
BLACK
6
CONTINUOUS
10
182.562
20
-95.2
11
182.562
21
-108.2
0
LINE
8
BLACK
6
CONTINUOUS
10
115.887
20
-95.2
11
115.887
21
-108.2
0
ARC
8
BLACK
10
287.837
20
-95.2
40
0.5
50
90
51
180
0
LINE
8
BLACK
6
CONTINUOUS
10
220.662
20
-95.2
11
220.662
21
-108.2
0
LINE
8
BLACK
6
CONTINUOUS
10
281.787
20
-94.7
11
268.787
21
-94.7
0
LINE
8
BLACK
6
CONTINUOUS
10
134.938
20
-95.2
11
134.938
21
-108.2
0
ARC
8
BLACK
10
349.75
20
-108.2
40
0.5
50
-180
51
-90
0
LINE
8
BLACK
6
CONTINUOUS
10
262.738
20
-94.7
11
249.737
21
-94.7
0
LINE
8
BLACK
6
CONTINUOUS
10
234.662
20
-108.2
11
234.662
21
-95.2
0
ARC
8
BLACK
10
110.337
20
-108.2
40
0.5
50
-90
51
-0
0
ARC
8
BLACK
10
38.7
20
-117.95
40
3
50
-180
51
-90
0
ARC
8
BLACK
10
148.438
20
-108.2
40
0.5
50
-90
51
-0
0
LINE
8
BLACK
6
CONTINUOUS
10
35.7
20
-62.49
11
35.7
21
-117.95
0
ARC
8
BLACK
10
306.887
20
-95.2
40
0.5
50
90
51
180
0
LINE
8
BLACK
6
CONTINUOUS
10
268.287
20
-95.2
11
268.287
21
-108.2
0
LINE
8
BLACK
6
CONTINUOUS
10
110.337
20
-94.7
11
97.3375
21
-94.7
0
ARC
8
BLACK
10
221.162
20
-95.2
40
0.5
50
90
51
180
0
LINE
8
BLACK
6
CONTINUOUS
10
129.387
20
-94.7
11
116.387
21
-94.7
0
ARC
8
BLACK
10
116.387
20
-95.2
40
0.5
50
90
51
180
0
LINE
8
BLACK
6
CONTINUOUS
10
282.287
20
-108.2
11
282.287
21
-95.2
0
LINE
8
BLACK
6
CONTINUOUS
10
301.337
20
-108.2
11
301.337
21
-95.2
0
ARC
8
BLACK
10
196.062
20
-108.2
40
0.5
50
-90
51
-0
0
ARC
8
BLACK
10
40.1875
20
-95.2
40
0.5
50
90
51
180
0
ARC
8
BLACK
10
53.1875
20
-108.2
40
0.5
50
-90
51
-0
0
ARC
8
BLACK
10
221.162
20
-108.2
40
0.5
50
-180
51
-90
0
LINE
8
BLACK
6
CONTINUOUS
10
91.2875
20
-94.7
11
78.2875
21
-94.7
0
LINE
8
BLACK
6
CONTINUOUS
10
306.387
20
-95.2
11
306.387
21
-108.2
0
LINE
8
BLACK
6
CONTINUOUS
10
129.887
20
-108.2
11
129.887
21
-95.2
0
ARC
8
BLACK
10
129.387
20
-108.2
40
0.5
50
-90
51
-0
0
LINE
8
BLACK
6
CONTINUOUS
10
349.75
20
-108.7
11
362.75
21
-108.7
0
LINE
8
BLACK
6
CONTINUOUS
10
330.7
20
-108.7
11
343.7
21
-108.7
0
ARC
8
BLACK
10
262.738
20
-108.2
40
0.5
50
-90
51
-0
0
ARC
8
BLACK
10
183.062
20
-108.2
40
0.5
50
-180
51
-90
0
ARC
8
BLACK
10
306.887
20
-108.2
40
0.5
50
-180
51
-90
0
LINE
8
BLACK
6
CONTINUOUS
10
215.612
20
-108.2
11
215.612
21
-95.2
0
LINE
8
BLACK
6
CONTINUOUS
10
234.162
20
-94.7
11
221.162
21
-94.7
0
LINE
8
BLACK
6
CONTINUOUS
10
306.887
20
-108.7
11
319.887
21
-108.7
0
ARC
8
BLACK
10
368.8
20
-108.2
40
0.5
50
-180
51
-90
0
LINE
8
BLACK
6
CONTINUOUS
10
349.25
20
-95.2
11
349.25
21
-108.2
0
LINE
8
BLACK
6
CONTINUOUS
10
363.25
20
-108.2
11
363.25
21
-95.2
0
ARC
8
BLACK
10
91.2875
20
-95.2
40
0.5
50
-0
51
90
0
ARC
8
BLACK
10
196.062
20
-95.2
40
0.5
50
-0
51
90
0
LINE
8
BLACK
6
CONTINUOUS
10
38.7
20
-120.95
11
383.3
21
-120.95
0
ARC
8
BLACK
10
281.787
20
-95.2
40
0.5
50
-0
51
90
0
CIRCLE
8
BLACK
10
376
20
-116
40
1.15
0
LINE
8
BLACK
6
CONTINUOUS
10
164.012
20
-108.7
11
177.012
21
-108.7
0
LINE
8
BLACK
6
CONTINUOUS
10
196.062
20
-94.7
11
183.062
21
-94.7
0
ARC
8
BLACK
10
249.737
20
-108.2
40
0.5
50
-180
51
-90
0
ARC
8
BLACK
10
262.738
20
-95.2
40
0.5
50
-0
51
90
0
LINE
8
BLACK
6
CONTINUOUS
10
40.1875
20
-108.7
11
53.1875
21
-108.7
0
LINE
8
BLACK
6
CONTINUOUS
10
362.75
20
-94.7
11
349.75
21
-94.7
0
ARC
8
BLACK
10
281.787
20
-108.2
40
0.5
50
-90
51
-0
0
LINE
8
BLACK
6
CONTINUOUS
10
287.337
20
-95.2
11
287.337
21
-108.2
0
ARC
8
BLACK
10
110.337
20
-95.2
40
0.5
50
-0
51
90
0
LINE
8
BLACK
6
CONTINUOUS
10
110.837
20
-108.2
11
110.837
21
-95.2
0
LINE
8
BLACK
6
CONTINUOUS
10
330.2
20
-95.2
11
330.2
21
-108.2
0
LINE
8
BLACK
6
CONTINUOUS
10
96.8375
20
-95.2
11
96.8375
21
-108.2
0
ARC
8
BLACK
10
343.7
20
-95.2
40
0.5
50
-0
51
90
0
ARC
8
BLACK
10
78.2875
20
-108.2
40
0.5
50
-180
51
-90
0
ARC
8
BLACK
10
97.3375
20
-108.2
40
0.5
50
-180
51
-90
0
LINE
8
BLACK
6
CONTINUOUS
10
148.938
20
-108.2
11
148.938
21
-95.2
0
ARC
8
BLACK
10
135.438
20
-95.2
40
0.5
50
90
51
180
0
ARC
8
BLACK
10
234.162
20
-108.2
40
0.5
50
-90
51
-0
0
CIRCLE
8
BLACK
10
212.2
20
-116
40
1.15
0
ARC
8
BLACK
10
319.887
20
-95.2
40
0.5
50
-0
51
90
0
LINE
8
BLACK
6
CONTINUOUS
10
249.237
20
-95.2
11
249.237
21
-108.2
0
ARC
8
BLACK
10
215.112
20
-95.2
40
0.5
50
-0
51
90
0
ARC
8
BLACK
10
164.012
20
-95.2
40
0.5
50
90
51
180
0
ARC
8
BLACK
10
135.438
20
-108.2
40
0.5
50
-180
51
-90
0
ARC
8
BLACK
10
349.75
20
-95.2
40
0.5
50
90
51
180
0
ARC
8
BLACK
10
362.75
20
-108.2
40
0.5
50
-90
51
-0
0
ARC
8
BLACK
10
38.7
20
-62.49
40
3
50
90
51
180
0
LINE
8
BLACK
6
CONTINUOUS
10
177.512
20
-108.2
11
177.512
21
-95.2
0
CIRCLE
8
BLACK
10
48.3
20
-116
40
1.15
0
LINE
8
BLACK
6
CONTINUOUS
10
78.2875
20
-108.7
11
91.2875
21
-108.7
0
LINE
8
BLACK
6
CONTINUOUS
10
368.8
20
-108.7
11
381.8
21
-108.7
0
ARC
8
BLACK
10
40.1875
20
-108.2
40
0.5
50
-180
51
-90
0
ARC
8
BLACK
10
362.75
20
-95.2
40
0.5
50
-0
51
90
0
ARC
8
BLACK
10
330.7
20
-108.2
40
0.5
50
-180
51
-90
0
LINE
8
BLACK
6
CONTINUOUS
10
77.7875
20
-95.2
11
77.7875
21
-108.2
0
LINE
8
BLACK
6
CONTINUOUS
10
320.387
20
-108.2
11
320.387
21
-95.2
0
LINE
8
BLACK
6
CONTINUOUS
10
381.8
20
-94.7
11
368.8
21
-94.7
0
ARC
8
BLACK
10
268.787
20
-108.2
40
0.5
50
-180
51
-90
0
LINE
8
BLACK
6
CONTINUOUS
10
249.737
20
-108.7
11
262.738
21
-108.7
0
ARC
8
BLACK
10
268.787
20
-95.2
40
0.5
50
90
51
180
0
CIRCLE
8
BLACK
10
41.2
20
-63.4
40
1.15
0
LINE
8
BLACK
6
CONTINUOUS
10
39.6875
20
-95.2
11
39.6875
21
-108.2
0
LINE
8
BLACK
6
CONTINUOUS
10
177.012
20
-94.7
11
164.012
21
-94.7
0
ARC
8
BLACK
10
330.7
20
-95.2
40
0.5
50
90
51
180
0
ARC
8
BLACK
10
97.3375
20
-95.2
40
0.5
50
90
51
180
0
ARC
8
BLACK
10
202.112
20
-108.2
40
0.5
50
-180
51
-90
0
ARC
8
BLACK
10
116.387
20
-108.2
40
0.5
50
-180
51
-90
0
LINE
8
BLACK
6
CONTINUOUS
10
383.3
20
-59.49
11
38.7
21
-59.49
0
LINE
8
BLACK
6
CONTINUOUS
10
319.887
20
-94.7
11
306.887
21
-94.7
0
ARC
8
BLACK
10
319.887
20
-108.2
40
0.5
50
-90
51
-0
0
ARC
8
BLACK
10
202.112
20
-95.2
40
0.5
50
90
51
180
0
LINE
8
BLACK
6
CONTINUOUS
10
343.7
20
-94.7
11
330.7
21
-94.7
0
ARC
8
BLACK
10
234.162
20
-95.2
40
0.5
50
-0
51
90
0
ARC
8
BLACK
10
300.837
20
-108.2
40
0.5
50
-90
51
-0
0
ARC
8
BLACK
10
287.837
20
-108.2
40
0.5
50
-180
51
-90
0
ARC
8
BLACK
10
215.112
20
-108.2
40
0.5
50
-90
51
-0
0
LINE
8
BLACK
6
CONTINUOUS
10
116.387
20
-108.7
11
129.387
21
-108.7
0
LINE
8
BLACK
6
CONTINUOUS
10
91.7875
20
-108.2
11
91.7875
21
-95.2
0
LINE
8
BLACK
6
CONTINUOUS
10
202.112
20
-108.7
11
215.112
21
-108.7
0
LINE
8
BLACK
6
CONTINUOUS
10
263.238
20
-108.2
11
263.238
21
-95.2
0
LINE
8
BLACK
6
CONTINUOUS
10
196.562
20
-108.2
11
196.562
21
-95.2
0
LINE
8
BLACK
6
CONTINUOUS
10
183.062
20
-108.7
11
196.062
21
-108.7
0
ARC
8
BLACK
10
249.737
20
-95.2
40
0.5
50
90
51
180
0
LINE
8
BLACK
6
CONTINUOUS
10
344.2
20
-108.2
11
344.2
21
-95.2
0
LINE
8
BLACK
6
CONTINUOUS
10
241
20
-63.7
11
293
21
-63.7
0
LINE
8
BLACK
6
CONTINUOUS
10
293
20
-63.7
11
293
21
-85.7
0
LINE
8
BLACK
6
CONTINUOUS
10
293
20
-85.7
11
241
21
-85.7
0
LINE
8
BLACK
6
CONTINUOUS
10
241
20
-85.7
11
241
21
-63.7
0
ARC
8
BLACK
10
343.7
20
-108.2
40
0.5
50
-90
51
-0
0
LINE
8
BLACK
6
CONTINUOUS
10
268.787
20
-108.7
11
281.787
21
-108.7
0
ARC
8
BLACK
10
383.3
20
-62.49
40
3
50
-0
51
90
0
LINE
8
BLACK
6
CONTINUOUS
10
221.162
20
-108.7
11
234.162
21
-108.7
0
LINE
8
BLACK
6
CONTINUOUS
10
148.438
20
-94.7
11
135.438
21
-94.7
0
LINE
8
BLACK
6
CONTINUOUS
10
368.3
20
-95.2
11
368.3
21
-108.2
0
ARC
8
BLACK
10
78.2875
20
-95.2
40
0.5
50
90
51
180
0
ARC
8
BLACK
10
129.387
20
-95.2
40
0.5
50
-0
51
90
0
ARC
8
BLACK
10
91.2875
20
-108.2
40
0.5
50
-90
51
-0
0
ARC
8
BLACK
10
148.438
20
-95.2
40
0.5
50
-0
51
90
0
LINE
8
BLACK
6
CONTINUOUS
10
382.3
20
-108.2
11
382.3
21
-95.2
0
CIRCLE
8
BLACK
10
182.9
20
-63.4
40
1.15
0
LINE
8
BLACK
6
CONTINUOUS
10
135.438
20
-108.7
11
148.438
21
-108.7
0
ARC
8
BLACK
10
53.1875
20
-95.2
40
0.5
50
-0
51
90
0
LINE
8
BLACK
6
CONTINUOUS
10
215.112
20
-94.7
11
202.112
21
-94.7
0
ARC
8
BLACK
10
368.8
20
-95.2
40
0.5
50
90
51
180
0
ARC
8
BLACK
10
381.8
20
-95.2
40
0.5
50
-0
51
90
0
ARC
8
BLACK
10
183.062
20
-95.2
40
0.5
50
90
51
180
0
LINE
8
BLACK
6
CONTINUOUS
10
53.6875
20
-108.2
11
53.6875
21
-95.2
0
ARC
8
BLACK
10
177.012
20
-108.2
40
0.5
50
-90
51
-0
0
ARC
8
BLACK
10
300.837
20
-95.2
40
0.5
50
-0
51
90
0
LINE
8
BLACK
6
CONTINUOUS
10
97.3375
20
-108.7
11
110.337
21
-108.7
0
LINE
8
BLACK
6
CONTINUOUS
10
201.612
20
-95.2
11
201.612
21
-108.2
0
ARC
8
BLACK
10
383.3
20
-117.95
40
3
50
-90
51
-0
0
LINE
8
BLACK
6
CONTINUOUS
10
163.512
20
-95.2
11
163.512
21
-108.2
  0
ENDSEC
  0
EOF
