  0
SECTION
  2
HEADER
  9
$ANGBASE
  50
0.0
  9
$ANGDIR
  70
1
  9
$MEASUREMENT
  70
1
  0
ENDSEC
  0
SECTION
  2
TABLES
  0
TABLE
  2
LTYPE
  70
4
  0
LTYPE
  5
40F
  2
CONTINUOUS
  70
0
  3
Solid line
  72
65
  73
0
  40
0.0
  0
LTYPE
  5
410
  2
DASHDOT
 70
0
  3
Dash Dot ____ _ ____ _
 72
65
 73
4
 40
2.0
 49
1.25
 49
-0.25
 49
0.25
 49
-0.25
  0
LTYPE
  5
411
  2
DASHED
 70
0
  3
Dashed __ __ __ __ __
 72
65
 73
2
 40
0.75
 49
0.5
 49
-0.25
  0
LTYPE
  5
43B
  2
DOTTED
 70
0
  3
Dotted .  .  .  .
 72
65
 73
2
 40
0.2
 49
0.0
 49
-0.2
  0
ENDTAB
  0
TABLE
  2
STYLE
  70
4
  0
STYLE
  2
KICAD
  70
0
  40
0
  41
1
  42
1
  50
0
  71
0
  3
isocp.shx
  0
STYLE
  2
KICADB
  70
0
  40
0
  41
1
  42
1
  50
0
  71
0
  3
isocp.shx
  0
STYLE
  2
KICADI
  70
0
  40
0
  41
1
  42
1
  50
15
  71
0
  3
isocp.shx
  0
STYLE
  2
KICADBI
  70
0
  40
0
  41
1
  42
1
  50
15
  71
0
  3
isocp.shx
  0
ENDTAB
  0
TABLE
  2
LAYER
  70
1
  0
LAYER
  2
BLACK
  70
0
  62
7
  6
CONTINUOUS
  0
ENDTAB
  0
ENDSEC
  0
SECTION
  2
ENTITIES
0
LINE
8
BLACK
6
CONTINUOUS
10
365.775
20
-92.175
11
346.725
21
-92.175
0
LINE
8
BLACK
6
CONTINUOUS
10
384.825
20
-92.175
11
365.775
21
-92.175
0
LINE
8
BLACK
6
CONTINUOUS
10
384.825
20
-111.225
11
384.825
21
-92.175
0
LINE
8
BLACK
6
CONTINUOUS
10
365.775
20
-111.225
11
384.825
21
-111.225
0
LINE
8
BLACK
6
CONTINUOUS
10
346.725
20
-111.225
11
365.775
21
-111.225
0
LINE
8
BLACK
6
CONTINUOUS
10
327.675
20
-111.225
11
346.725
21
-111.225
0
LINE
8
BLACK
6
CONTINUOUS
10
327.675
20
-92.175
11
327.675
21
-111.225
0
LINE
8
BLACK
6
CONTINUOUS
10
346.725
20
-92.175
11
327.675
21
-92.175
0
LINE
8
BLACK
6
CONTINUOUS
10
303.862
20
-111.225
11
265.762
21
-111.225
0
LINE
8
BLACK
6
CONTINUOUS
10
322.912
20
-111.225
11
303.862
21
-111.225
0
LINE
8
BLACK
6
CONTINUOUS
10
322.912
20
-92.175
11
322.912
21
-111.225
0
LINE
8
BLACK
6
CONTINUOUS
10
303.862
20
-92.175
11
322.912
21
-92.175
0
LINE
8
BLACK
6
CONTINUOUS
10
265.762
20
-92.175
11
303.862
21
-92.175
0
LINE
8
BLACK
6
CONTINUOUS
10
246.712
20
-92.175
11
265.762
21
-92.175
0
LINE
8
BLACK
6
CONTINUOUS
10
246.712
20
-111.225
11
246.712
21
-92.175
0
LINE
8
BLACK
6
CONTINUOUS
10
265.762
20
-111.225
11
246.712
21
-111.225
0
LINE
8
BLACK
6
CONTINUOUS
10
218.137
20
-111.225
11
180.037
21
-111.225
0
LINE
8
BLACK
6
CONTINUOUS
10
237.187
20
-111.225
11
218.137
21
-111.225
0
LINE
8
BLACK
6
CONTINUOUS
10
237.187
20
-92.175
11
237.187
21
-111.225
0
LINE
8
BLACK
6
CONTINUOUS
10
218.137
20
-92.175
11
237.187
21
-92.175
0
LINE
8
BLACK
6
CONTINUOUS
10
180.037
20
-92.175
11
218.137
21
-92.175
0
LINE
8
BLACK
6
CONTINUOUS
10
160.987
20
-92.175
11
180.037
21
-92.175
0
LINE
8
BLACK
6
CONTINUOUS
10
160.987
20
-111.225
11
160.987
21
-92.175
0
LINE
8
BLACK
6
CONTINUOUS
10
180.037
20
-111.225
11
160.987
21
-111.225
0
LINE
8
BLACK
6
CONTINUOUS
10
132.413
20
-111.225
11
94.3125
21
-111.225
0
LINE
8
BLACK
6
CONTINUOUS
10
151.463
20
-111.225
11
132.413
21
-111.225
0
LINE
8
BLACK
6
CONTINUOUS
10
151.463
20
-92.175
11
151.463
21
-111.225
0
LINE
8
BLACK
6
CONTINUOUS
10
132.413
20
-92.175
11
151.463
21
-92.175
0
LINE
8
BLACK
6
CONTINUOUS
10
94.3125
20
-92.175
11
132.413
21
-92.175
0
LINE
8
BLACK
6
CONTINUOUS
10
75.2625
20
-92.175
11
94.3125
21
-92.175
0
LINE
8
BLACK
6
CONTINUOUS
10
75.2625
20
-111.225
11
75.2625
21
-92.175
0
LINE
8
BLACK
6
CONTINUOUS
10
94.3125
20
-111.225
11
75.2625
21
-111.225
0
LINE
8
BLACK
6
CONTINUOUS
10
56.2125
20
-92.175
11
56.2125
21
-111.225
0
LINE
8
BLACK
6
CONTINUOUS
10
37.1625
20
-92.175
11
56.2125
21
-92.175
0
LINE
8
BLACK
6
CONTINUOUS
10
37.1625
20
-111.225
11
37.1625
21
-92.175
0
LINE
8
BLACK
6
CONTINUOUS
10
56.2125
20
-111.225
11
37.1625
21
-111.225
0
CIRCLE
8
BLACK
10
48.4
20
-116.2
40
1.15
0
CIRCLE
8
BLACK
10
212.3
20
-116.2
40
1.15
0
LINE
8
BLACK
6
CONTINUOUS
10
293
20
-63.7
11
293
21
-85.7
0
LINE
8
BLACK
6
CONTINUOUS
10
241
20
-63.7
11
293
21
-63.7
0
LINE
8
BLACK
6
CONTINUOUS
10
241
20
-85.7
11
241
21
-63.7
0
LINE
8
BLACK
6
CONTINUOUS
10
293
20
-85.7
11
241
21
-85.7
0
CIRCLE
8
BLACK
10
41.3
20
-63.6
40
1.15
0
CIRCLE
8
BLACK
10
376.1
20
-116.2
40
1.15
0
CIRCLE
8
BLACK
10
183
20
-63.95
40
1.15
0
ARC
8
BLACK
10
38.7
20
-62.49
40
3
50
90
51
180
0
LINE
8
BLACK
6
CONTINUOUS
10
383.3
20
-59.49
11
38.7
21
-59.49
0
ARC
8
BLACK
10
383.3
20
-62.49
40
3
50
-0
51
90
0
LINE
8
BLACK
6
CONTINUOUS
10
386.3
20
-117.95
11
386.3
21
-62.49
0
ARC
8
BLACK
10
383.3
20
-117.95
40
3
50
-90
51
-0
0
LINE
8
BLACK
6
CONTINUOUS
10
38.7
20
-120.95
11
383.3
21
-120.95
0
ARC
8
BLACK
10
38.7
20
-117.95
40
3
50
-180
51
-90
0
LINE
8
BLACK
6
CONTINUOUS
10
35.7
20
-62.49
11
35.7
21
-117.95
0
CIRCLE
8
BLACK
10
379.9
20
-63.6
40
1.15
  0
ENDSEC
  0
EOF
