0
SECTION
2
HEADER
9
$INSUNITS
70
4
9
$ACADVER
1
AC1014
9
$HANDSEED
5
FFFF
0
ENDSEC
0
SECTION
2
TABLES
0
TABLE
2
VPORT
5
8
100
AcDbSymbolTable
0
ENDTAB
0
TABLE
2
LTYPE
5
5
100
AcDbSymbolTable
0
LTYPE
5
14
100
AcDbSymbolTableRecord
100
AcDbLinetypeTableRecord
2
BYBLOCK
70
0
0
LTYPE
5
15
100
AcDbSymbolTableRecord
100
AcDbLinetypeTableRecord
2
BYLAYER
70
0
0
ENDTAB
0
TABLE
2
LAYER
5
2
100
AcDbSymbolTable
70
2
0
LAYER
5
50
100
AcDbSymbolTableRecord
100
AcDbLayerTableRecord
2
0
70
0
6
CONTINUOUS
0
ENDTAB
0
TABLE
2
STYLE
5
3
100
AcDbSymbolTable
70
1
0
STYLE
5
11
100
AcDbSymbolTableRecord
100
AcDbTextStyleTableRecord
2
STANDARD
70
0
0
ENDTAB
0
TABLE
2
VIEW
5
6
100
AcDbSymbolTable
70
0
0
ENDTAB
0
TABLE
2
UCS
5
7
100
AcDbSymbolTable
70
0
0
ENDTAB
0
TABLE
2
APPID
5
9
100
AcDbSymbolTable
70
2
0
APPID
5
12
100
AcDbSymbolTableRecord
100
AcDbRegAppTableRecord
2
ACAD
70
0
0
ENDTAB
0
TABLE
2
DIMSTYLE
5
A
100
AcDbSymbolTable
70
1
0
ENDTAB
0
TABLE
2
BLOCK_RECORD
5
1
100
AcDbSymbolTable
70
1
0
BLOCK_RECORD
5
1F
100
AcDbSymbolTableRecord
100
AcDbBlockTableRecord
2
*MODEL_SPACE
0
BLOCK_RECORD
5
1B
100
AcDbSymbolTableRecord
100
AcDbBlockTableRecord
2
*PAPER_SPACE
0
ENDTAB
0
ENDSEC
0
SECTION
2
BLOCKS
0
BLOCK
5
20
100
AcDbEntity
100
AcDbBlockBegin
2
*MODEL_SPACE
0
ENDBLK
5
21
100
AcDbEntity
100
AcDbBlockEnd
0
BLOCK
5
1C
100
AcDbEntity
100
AcDbBlockBegin
2
*PAPER_SPACE
0
ENDBLK
5
1D
100
AcDbEntity
100
AcDbBlockEnd
0
ENDSEC
0
SECTION
2
ENTITIES
0
CIRCLE
5
100
100
AcDbEntity
8
0
100
AcDbCircle
10
377.80000000000001
20
-62.700000000000003
30
0
40
1.1499999999999999
210
0
220
0
230
1
0
LWPOLYLINE
5
101
100
AcDbEntity
8
0
100
AcDbPolyline
90
8
70
1
43
0.0
10
35.700000000000003
20
-62.490000000000009
10
35.700000000000003
20
-117.95000000000002
42
0.41421356237309503
10
38.700000000000003
20
-120.95000000000002
10
383.30000000000007
20
-120.95000000000002
42
0.41421356237309503
10
386.30000000000001
20
-117.95000000000002
10
386.30000000000001
20
-62.490000000000009
42
0.41421356237309503
10
383.30000000000007
20
-59.490000000000009
10
38.700000000000003
20
-59.490000000000009
42
0.41421356237309503
0
CIRCLE
5
102
100
AcDbEntity
8
0
100
AcDbCircle
10
182.90000000000003
20
-63.399999999999999
30
0
40
1.1499999999999999
210
0
220
0
230
1
0
CIRCLE
5
103
100
AcDbEntity
8
0
100
AcDbCircle
10
376
20
-116.00000000000001
30
0
40
1.1499999999999999
210
0
220
0
230
1
0
CIRCLE
5
104
100
AcDbEntity
8
0
100
AcDbCircle
10
41.200000000000003
20
-63.399999999999999
30
0
40
1.1499999999999999
210
0
220
0
230
1
0
LWPOLYLINE
5
105
100
AcDbEntity
8
0
100
AcDbPolyline
90
4
70
1
43
0.0
10
293
20
-85.700000000000003
10
241
20
-85.700000000000003
10
241
20
-63.70000000000001
10
293
20
-63.70000000000001
0
CIRCLE
5
106
100
AcDbEntity
8
0
100
AcDbCircle
10
212.19999999999999
20
-116.00000000000001
30
0
40
1.1499999999999999
210
0
220
0
230
1
0
CIRCLE
5
107
100
AcDbEntity
8
0
100
AcDbCircle
10
48.299999999999997
20
-116.00000000000001
30
0
40
1.1499999999999999
210
0
220
0
230
1
0
LWPOLYLINE
5
108
100
AcDbEntity
8
0
100
AcDbPolyline
90
4
70
1
43
0.0
10
56.212499999999999
20
-111.22500000000002
10
37.162500000000009
20
-111.22500000000002
10
37.162500000000009
20
-92.175000000000011
10
56.212499999999999
20
-92.175000000000011
0
LWPOLYLINE
5
109
100
AcDbEntity
8
0
100
AcDbPolyline
90
8
70
1
43
0.0
10
94.3125
20
-111.22500000000002
10
75.262499999999989
20
-111.22500000000002
10
75.262499999999989
20
-92.175000000000011
10
94.3125
20
-92.175000000000011
10
132.41299999999998
20
-92.175000000000011
10
151.46299999999999
20
-92.175000000000011
10
151.46299999999999
20
-111.22500000000002
10
132.41299999999998
20
-111.22500000000002
0
LWPOLYLINE
5
110
100
AcDbEntity
8
0
100
AcDbPolyline
90
8
70
1
43
0.0
10
180.03700000000003
20
-111.22500000000002
10
160.98700000000002
20
-111.22500000000002
10
160.98700000000002
20
-92.175000000000011
10
180.03700000000003
20
-92.175000000000011
10
218.13700000000006
20
-92.175000000000011
10
237.18700000000007
20
-92.175000000000011
10
237.18700000000007
20
-111.22500000000002
10
218.13700000000006
20
-111.22500000000002
0
LWPOLYLINE
5
111
100
AcDbEntity
8
0
100
AcDbPolyline
90
8
70
1
43
0.0
10
265.76250000000005
20
-111.22500000000002
10
246.71250000000001
20
-111.22500000000002
10
246.71250000000001
20
-92.175000000000011
10
265.76250000000005
20
-92.175000000000011
10
303.86200000000002
20
-92.175000000000011
10
322.91200000000003
20
-92.175000000000011
10
322.91200000000003
20
-111.22500000000002
10
303.86200000000002
20
-111.22500000000002
0
LWPOLYLINE
5
112
100
AcDbEntity
8
0
100
AcDbPolyline
90
8
70
1
43
0.0
10
346.72500000000002
20
-92.175000000000011
10
327.67499999999995
20
-92.175000000000011
10
327.67499999999995
20
-111.22500000000002
10
346.72500000000002
20
-111.22500000000002
10
365.77499999999998
20
-111.22500000000002
10
384.82500000000005
20
-111.22500000000002
10
384.82500000000005
20
-92.175000000000011
10
365.77499999999998
20
-92.175000000000011
0
ENDSEC
0
SECTION
2
OBJECTS
0
DICTIONARY
5
C
100
AcDbDictionary
3
ACAD_GROUP
350
D
3
ACAD_MLINESTYLE
350
17
0
DICTIONARY
5
D
100
AcDbDictionary
0
DICTIONARY
5
1A
330
C
100
AcDbDictionary
0
DICTIONARY
5
17
100
AcDbDictionary
0
ENDSEC
0
EOF
